<svg width="914" height="400" fill="none" xmlns="http://www.w3.org/2000/svg"><path fill="#fff" d="M0 0h914v400H0z"/><path d="M458.236 187.916v24.024c0 .84-.7 1.54-1.54 1.54-.84 0-1.54-.7-1.54-1.54v-24.024c0-.84.7-1.54 1.54-1.54.84 0 1.54.7 1.54 1.54Zm9.874 8.372h2.184c.84 0 1.512.448 1.512 1.288.42-.7 1.736-1.68 3.304-1.68 3.668 0 5.684 2.156 5.684 6.72s-2.044 6.748-5.684 6.748c-1.4 0-2.632-.448-3.304-1.204v3.948h1.12c.7 0 1.26.56 1.26 1.26s-.56 1.26-1.26 1.26h-4.816c-.7 0-1.26-.56-1.26-1.26s.56-1.26 1.26-1.26h.672v-13.3h-.672c-.7 0-1.26-.56-1.26-1.26s.56-1.26 1.26-1.26Zm6.608 10.5c1.96 0 2.996-1.4 2.996-4.144 0-2.772-1.036-4.172-2.996-4.172s-2.996 1.4-2.996 4.172c0 2.744 1.036 4.144 2.996 4.144Zm19.76 2.212h-2.268c-.756 0-1.372-.56-1.372-1.26-.756 1.204-1.988 1.624-3.668 1.624-2.744 0-4.564-1.708-4.564-4.228 0-2.604 2.1-3.948 4.536-3.948h3.668v-.504c0-1.26-.924-2.1-2.548-2.1-1.232 0-2.1.56-2.8 1.064-.28.196-.504.28-.84.28a1.314 1.314 0 0 1-1.316-1.316c0-.308.112-.644.364-.924.784-.868 2.184-1.792 4.592-1.792 3.472 0 5.544 1.708 5.544 4.676v5.908h.672c.7 0 1.26.56 1.26 1.26s-.56 1.26-1.26 1.26Zm-8.848-3.864c0 1.064.756 1.708 2.324 1.708 1.484 0 2.856-.952 2.856-2.52v-.784h-3.276c-1.232 0-1.904.588-1.904 1.596Zm12.734-8.848v-2.352c0-.812.672-1.484 1.484-1.484.812 0 1.484.672 1.484 1.484v2.352h1.26c.7 0 1.26.56 1.26 1.26s-.56 1.26-1.26 1.26h-1.26v6.776c0 .644.672 1.008 1.288 1.008.728 0 1.316.588 1.316 1.316 0 .728-.588 1.316-1.316 1.316-2.632 0-4.256-1.596-4.256-3.808v-6.608h-.644c-.7 0-1.26-.56-1.26-1.26s.56-1.26 1.26-1.26h.644ZM519.102 209h-4.368c-.7 0-1.26-.532-1.26-1.26 0-.7.56-1.26 1.26-1.26h.672v-5.152c0-1.596-.644-2.688-2.464-2.688-2.1 0-2.8 1.288-2.8 3.024v4.816h.672c.7 0 1.26.56 1.26 1.26s-.56 1.26-1.26 1.26h-4.368c-.7 0-1.26-.532-1.26-1.26 0-.7.56-1.26 1.26-1.26h.672v-14.896h-.672c-.7 0-1.26-.532-1.26-1.26 0-.7.56-1.26 1.26-1.26h2.268c.84 0 1.428.728 1.428 1.512v7c.532-.812 1.708-1.68 3.584-1.68 3.808 0 4.704 2.436 4.704 4.872v5.712h.672c.7 0 1.26.56 1.26 1.26s-.56 1.26-1.26 1.26Z" fill="#333"/></svg>